{
    "asset" : {
        "generator" : "Khronos glTF Blender I/O v3.4.50",
        "version" : "2.0"
    },
    "scene" : 0,
    "scenes" : [
        {
            "name" : "Scene",
            "nodes" : [
                0
            ]
        }
    ],
    "nodes" : [
        {
            "mesh" : 0,
            "name" : "Root Node",
            "rotation" : [
                -0.70710688829422,
                0,
                0,
                0.7071066498756409
            ],
            "scale" : [
                0.02539999969303608,
                0.025400003418326378,
                0.025400003418326378
            ]
        }
    ],
    "materials" : [
        {
            "doubleSided" : true,
            "name" : "default_face_material",
            "pbrMetallicRoughness" : {
                "baseColorFactor" : [
                    0.9803921580314636,
                    0.9803921580314636,
                    0.9803921580314636,
                    1
                ]
            }
        },
        {
            "doubleSided" : true,
            "name" : "\u0e2a\u0e01\u0e23\u0e35\u0e19\u0e0a\u0e47\u0e2d\u0e15 2022-12-21 173517",
            "pbrMetallicRoughness" : {
                "baseColorFactor" : [
                    0.7058823704719543,
                    0.40392157435417175,
                    0.3176470696926117,
                    1
                ],
                "baseColorTexture" : {
                    "index" : 0
                }
            }
        },
        {
            "doubleSided" : true,
            "name" : "\u0e2a\u0e01\u0e23\u0e35\u0e19\u0e0a\u0e47\u0e2d\u0e15 2022-12-21 173517.001",
            "pbrMetallicRoughness" : {
                "baseColorFactor" : [
                    0.7058823704719543,
                    0.40392157435417175,
                    0.3176470696926117,
                    1
                ],
                "baseColorTexture" : {
                    "index" : 1
                }
            }
        },
        {
            "doubleSided" : true,
            "name" : "\u0e2a\u0e01\u0e23\u0e35\u0e19\u0e0a\u0e47\u0e2d\u0e15 2022-12-21 173517.002",
            "pbrMetallicRoughness" : {
                "baseColorFactor" : [
                    0.7058823704719543,
                    0.40392157435417175,
                    0.3176470696926117,
                    1
                ],
                "baseColorTexture" : {
                    "index" : 2
                }
            }
        },
        {
            "doubleSided" : true,
            "name" : "\u0e2a\u0e01\u0e23\u0e35\u0e19\u0e0a\u0e47\u0e2d\u0e15 2022-12-21 173517.003",
            "pbrMetallicRoughness" : {
                "baseColorFactor" : [
                    0.7058823704719543,
                    0.40392157435417175,
                    0.3176470696926117,
                    1
                ],
                "baseColorTexture" : {
                    "index" : 3
                }
            }
        },
        {
            "doubleSided" : true,
            "name" : "\u0e2a\u0e01\u0e23\u0e35\u0e19\u0e0a\u0e47\u0e2d\u0e15 2022-12-21 173517.004",
            "pbrMetallicRoughness" : {
                "baseColorFactor" : [
                    0.7058823704719543,
                    0.40392157435417175,
                    0.3176470696926117,
                    1
                ],
                "baseColorTexture" : {
                    "index" : 4
                }
            }
        }
    ],
    "meshes" : [
        {
            "name" : "Mesh_0",
            "primitives" : [
                {
                    "attributes" : {
                        "POSITION" : 0,
                        "TEXCOORD_0" : 1,
                        "NORMAL" : 2
                    },
                    "indices" : 3,
                    "material" : 0
                },
                {
                    "attributes" : {
                        "POSITION" : 4,
                        "TEXCOORD_0" : 5,
                        "NORMAL" : 6
                    },
                    "indices" : 3,
                    "material" : 1
                },
                {
                    "attributes" : {
                        "POSITION" : 7,
                        "TEXCOORD_0" : 8,
                        "NORMAL" : 9
                    },
                    "indices" : 3,
                    "material" : 2
                },
                {
                    "attributes" : {
                        "POSITION" : 10,
                        "TEXCOORD_0" : 11,
                        "NORMAL" : 12
                    },
                    "indices" : 3,
                    "material" : 3
                },
                {
                    "attributes" : {
                        "POSITION" : 13,
                        "TEXCOORD_0" : 14,
                        "NORMAL" : 15
                    },
                    "indices" : 3,
                    "material" : 4
                },
                {
                    "attributes" : {
                        "POSITION" : 16,
                        "TEXCOORD_0" : 17,
                        "NORMAL" : 18
                    },
                    "indices" : 3,
                    "material" : 5
                }
            ]
        }
    ],
    "textures" : [
        {
            "sampler" : 0,
            "source" : 0
        },
        {
            "sampler" : 0,
            "source" : 0
        },
        {
            "sampler" : 0,
            "source" : 0
        },
        {
            "sampler" : 0,
            "source" : 0
        },
        {
            "sampler" : 0,
            "source" : 0
        }
    ],
    "images" : [
        {
            "bufferView" : 7,
            "mimeType" : "image/png",
            "name" : "\u0e2a\u0e01\u0e23\u0e35\u0e19\u0e0a\u0e47\u0e2d\u0e15 2022-12-21 173517"
        }
    ],
    "accessors" : [
        {
            "bufferView" : 0,
            "componentType" : 5126,
            "count" : 6,
            "max" : [
                196.8503875732422,
                196.8503875732422,
                0
            ],
            "min" : [
                0,
                -2.842170943040401e-14,
                0
            ],
            "type" : "VEC3"
        },
        {
            "bufferView" : 1,
            "componentType" : 5126,
            "count" : 6,
            "type" : "VEC2"
        },
        {
            "bufferView" : 2,
            "componentType" : 5126,
            "count" : 6,
            "type" : "VEC3"
        },
        {
            "bufferView" : 3,
            "componentType" : 5123,
            "count" : 6,
            "type" : "SCALAR"
        },
        {
            "bufferView" : 4,
            "componentType" : 5126,
            "count" : 6,
            "max" : [
                196.8503875732422,
                196.8503875732422,
                196.8503875732422
            ],
            "min" : [
                0,
                -2.842170943040401e-14,
                196.8503875732422
            ],
            "type" : "VEC3"
        },
        {
            "bufferView" : 5,
            "componentType" : 5126,
            "count" : 6,
            "type" : "VEC2"
        },
        {
            "bufferView" : 6,
            "componentType" : 5126,
            "count" : 6,
            "type" : "VEC3"
        },
        {
            "bufferView" : 8,
            "componentType" : 5126,
            "count" : 6,
            "max" : [
                196.8503875732422,
                0,
                196.8503875732422
            ],
            "min" : [
                0,
                -2.842170943040401e-14,
                0
            ],
            "type" : "VEC3"
        },
        {
            "bufferView" : 9,
            "componentType" : 5126,
            "count" : 6,
            "type" : "VEC2"
        },
        {
            "bufferView" : 10,
            "componentType" : 5126,
            "count" : 6,
            "type" : "VEC3"
        },
        {
            "bufferView" : 11,
            "componentType" : 5126,
            "count" : 6,
            "max" : [
                196.8503875732422,
                196.8503875732422,
                196.8503875732422
            ],
            "min" : [
                196.8503875732422,
                -2.842170943040401e-14,
                0
            ],
            "type" : "VEC3"
        },
        {
            "bufferView" : 12,
            "componentType" : 5126,
            "count" : 6,
            "type" : "VEC2"
        },
        {
            "bufferView" : 13,
            "componentType" : 5126,
            "count" : 6,
            "type" : "VEC3"
        },
        {
            "bufferView" : 14,
            "componentType" : 5126,
            "count" : 6,
            "max" : [
                196.8503875732422,
                196.8503875732422,
                196.8503875732422
            ],
            "min" : [
                0,
                196.8503875732422,
                0
            ],
            "type" : "VEC3"
        },
        {
            "bufferView" : 15,
            "componentType" : 5126,
            "count" : 6,
            "type" : "VEC2"
        },
        {
            "bufferView" : 16,
            "componentType" : 5126,
            "count" : 6,
            "type" : "VEC3"
        },
        {
            "bufferView" : 17,
            "componentType" : 5126,
            "count" : 6,
            "max" : [
                0,
                196.8503875732422,
                196.8503875732422
            ],
            "min" : [
                0,
                0,
                0
            ],
            "type" : "VEC3"
        },
        {
            "bufferView" : 18,
            "componentType" : 5126,
            "count" : 6,
            "type" : "VEC2"
        },
        {
            "bufferView" : 19,
            "componentType" : 5126,
            "count" : 6,
            "type" : "VEC3"
        }
    ],
    "bufferViews" : [
        {
            "buffer" : 0,
            "byteLength" : 72,
            "byteOffset" : 0,
            "target" : 34962
        },
        {
            "buffer" : 0,
            "byteLength" : 48,
            "byteOffset" : 72,
            "target" : 34962
        },
        {
            "buffer" : 0,
            "byteLength" : 72,
            "byteOffset" : 120,
            "target" : 34962
        },
        {
            "buffer" : 0,
            "byteLength" : 12,
            "byteOffset" : 192,
            "target" : 34963
        },
        {
            "buffer" : 0,
            "byteLength" : 72,
            "byteOffset" : 204,
            "target" : 34962
        },
        {
            "buffer" : 0,
            "byteLength" : 48,
            "byteOffset" : 276,
            "target" : 34962
        },
        {
            "buffer" : 0,
            "byteLength" : 72,
            "byteOffset" : 324,
            "target" : 34962
        },
        {
            "buffer" : 0,
            "byteLength" : 166396,
            "byteOffset" : 396
        },
        {
            "buffer" : 0,
            "byteLength" : 72,
            "byteOffset" : 166792,
            "target" : 34962
        },
        {
            "buffer" : 0,
            "byteLength" : 48,
            "byteOffset" : 166864,
            "target" : 34962
        },
        {
            "buffer" : 0,
            "byteLength" : 72,
            "byteOffset" : 166912,
            "target" : 34962
        },
        {
            "buffer" : 0,
            "byteLength" : 72,
            "byteOffset" : 166984,
            "target" : 34962
        },
        {
            "buffer" : 0,
            "byteLength" : 48,
            "byteOffset" : 167056,
            "target" : 34962
        },
        {
            "buffer" : 0,
            "byteLength" : 72,
            "byteOffset" : 167104,
            "target" : 34962
        },
        {
            "buffer" : 0,
            "byteLength" : 72,
            "byteOffset" : 167176,
            "target" : 34962
        },
        {
            "buffer" : 0,
            "byteLength" : 48,
            "byteOffset" : 167248,
            "target" : 34962
        },
        {
            "buffer" : 0,
            "byteLength" : 72,
            "byteOffset" : 167296,
            "target" : 34962
        },
        {
            "buffer" : 0,
            "byteLength" : 72,
            "byteOffset" : 167368,
            "target" : 34962
        },
        {
            "buffer" : 0,
            "byteLength" : 48,
            "byteOffset" : 167440,
            "target" : 34962
        },
        {
            "buffer" : 0,
            "byteLength" : 72,
            "byteOffset" : 167488,
            "target" : 34962
        }
    ],
    "samplers" : [
        {
            "magFilter" : 9729,
            "minFilter" : 9987
        }
    ],
    "buffers" : [
        {
            "byteLength" : 167560,
            "uri" : "data:application/octet-stream;base64,"
        }
    ]
}
